# Blender 3.1.0
# www.blender.org
mtllib bird.mtl
o Bird
v 0.165694 0.000000 -0.225378
v 0.313185 0.092751 -0.200612
v 0.331885 0.000000 -0.215539
v 0.153739 0.248464 0.009924
v 0.154427 0.532326 -0.018440
v 0.261736 0.251772 0.014520
v 0.014060 0.000000 -0.186269
v -0.085215 0.165430 -0.111733
v -0.024036 0.189460 -0.193846
v 0.106555 0.190483 0.240855
v 0.259326 0.000000 0.263329
v 0.296245 0.160456 0.233061
v 0.348813 0.103337 -0.173449
v 0.394739 0.000000 -0.171356
v 0.325832 0.150065 0.224749
v 0.466197 0.000000 0.026800
v 0.352603 0.246479 -0.006226
v 0.288757 0.266260 -0.016906
v -0.130757 -0.000000 0.080808
v -0.109914 0.184061 -0.004374
v -0.132158 -0.000000 -0.031313
v -0.070574 -0.000000 0.197030
v -0.115897 0.181293 0.105964
v -0.053869 0.223285 -0.009572
v -0.070100 0.173066 0.199537
v -0.100717 -0.000000 -0.122070
v 0.155448 0.231119 -0.016449
v 0.158969 0.136748 -0.225060
v 0.101656 0.000000 0.268820
v -0.006664 0.528185 -0.019225
v 0.071821 0.544352 -0.034971
v 0.255811 0.208378 0.105917
v 0.021872 0.224388 0.112026
v 0.132367 0.249562 0.128988
v 0.034895 0.222609 0.031659
v 0.152666 0.529748 0.029421
v 0.069010 0.545932 0.042576
v -0.006944 0.525768 0.028884
v 0.351983 0.000000 -0.056235
v 0.314284 0.178055 -0.018878
v 0.314284 0.194263 -0.048599
v 0.502082 0.163689 -0.018878
v 0.539780 0.000000 -0.044851
v 0.502082 0.179896 -0.048599
v 0.351983 0.000000 0.003410
v 0.284841 0.123968 -0.098745
v 0.326508 0.000000 -0.056831
v 0.284841 0.151427 -0.071581
v 0.492406 0.161109 -0.098745
v 0.534072 0.000000 -0.075018
v 0.534072 0.000000 -0.124968
v 0.492406 0.188568 -0.071581
v 0.326508 0.000000 -0.124968
v 0.355747 0.123688 0.003709
v 0.368954 0.162468 0.020464
v 0.392584 0.118957 0.027786
v 0.371057 0.189666 0.055321
v 0.331124 0.191167 0.036290
v 0.360359 0.081983 0.017801
v 0.316812 0.102644 0.004307
v 0.322125 0.152387 0.005953
v 0.340371 0.204174 0.083730
v 0.411259 0.115640 0.067778
v 0.401583 0.157738 0.058123
v 0.407549 0.140001 0.104547
v 0.356433 0.052736 0.050790
v 0.392988 0.077252 0.055460
v 0.370010 0.053284 0.092915
v 0.282347 0.087886 0.027833
v 0.317216 0.060939 0.031980
v 0.279634 0.063863 0.064910
v 0.291385 0.172513 0.030633
v 0.278981 0.131343 0.020132
v 0.261316 0.157118 0.059234
v 0.383919 0.183513 0.097224
v 0.402236 0.090258 0.102900
v 0.323181 0.043202 0.078404
v 0.256004 0.107375 0.057588
v 0.293542 0.194092 0.069220
v 0.381205 0.159490 0.134302
v 0.346336 0.186436 0.130154
v 0.346740 0.144732 0.157827
v 0.372167 0.074863 0.131501
v 0.384571 0.116033 0.142002
v 0.341427 0.094989 0.156181
v 0.292496 0.057710 0.106813
v 0.332429 0.056209 0.125844
v 0.294598 0.084907 0.141670
v 0.252293 0.131736 0.094356
v 0.261969 0.089638 0.104011
v 0.270968 0.128419 0.134348
v 0.307119 0.194640 0.111344
v 0.270564 0.170124 0.106675
v 0.303193 0.165393 0.144334
v 0.307805 0.123688 0.158425
v 0.313185 -0.092751 -0.200612
v 0.158969 -0.136748 -0.225060
v 0.154427 -0.532326 -0.018440
v 0.153739 -0.248464 0.009924
v 0.261736 -0.251772 0.014520
v -0.085215 -0.165430 -0.111733
v -0.024036 -0.189460 -0.193846
v 0.106555 -0.190483 0.240855
v 0.348813 -0.103337 -0.173449
v 0.325832 -0.150065 0.224749
v 0.352603 -0.246479 -0.006226
v 0.296245 -0.160456 0.233061
v 0.288757 -0.266260 -0.016906
v -0.109914 -0.184061 -0.004374
v -0.115897 -0.181293 0.105964
v -0.070100 -0.173066 0.199537
v -0.053869 -0.223285 -0.009572
v 0.155448 -0.231119 -0.016449
v -0.006664 -0.528185 -0.019225
v 0.034895 -0.222609 0.031659
v 0.255811 -0.208378 0.105917
v 0.132367 -0.249562 0.128988
v 0.021872 -0.224388 0.112026
v 0.071821 -0.544352 -0.034971
v 0.152666 -0.529748 0.029421
v 0.069010 -0.545932 0.042576
v -0.006944 -0.525768 0.028884
v 0.314284 -0.178055 -0.018878
v 0.314284 -0.194263 -0.048599
v 0.502082 -0.163689 -0.018878
v 0.502082 -0.179896 -0.048599
v 0.284841 -0.123968 -0.098745
v 0.492406 -0.161109 -0.098745
v 0.492406 -0.188568 -0.071581
v 0.284841 -0.151427 -0.071581
v 0.355747 -0.123688 0.003709
v 0.392584 -0.118957 0.027786
v 0.368954 -0.162468 0.020464
v 0.371057 -0.189666 0.055321
v 0.331124 -0.191167 0.036290
v 0.360359 -0.081983 0.017801
v 0.316812 -0.102644 0.004307
v 0.322125 -0.152387 0.005953
v 0.340371 -0.204174 0.083730
v 0.411259 -0.115640 0.067778
v 0.407549 -0.140001 0.104547
v 0.401583 -0.157738 0.058123
v 0.356433 -0.052736 0.050790
v 0.370010 -0.053284 0.092915
v 0.392988 -0.077252 0.055460
v 0.282347 -0.087886 0.027833
v 0.279634 -0.063863 0.064910
v 0.317216 -0.060939 0.031980
v 0.291385 -0.172513 0.030633
v 0.261316 -0.157118 0.059234
v 0.278981 -0.131343 0.020132
v 0.383919 -0.183513 0.097224
v 0.402236 -0.090258 0.102900
v 0.323181 -0.043202 0.078404
v 0.256004 -0.107375 0.057588
v 0.293542 -0.194092 0.069220
v 0.381205 -0.159490 0.134302
v 0.346740 -0.144732 0.157827
v 0.346336 -0.186436 0.130154
v 0.372167 -0.074863 0.131501
v 0.341427 -0.094989 0.156181
v 0.384571 -0.116033 0.142002
v 0.292496 -0.057710 0.106813
v 0.294598 -0.084907 0.141670
v 0.332429 -0.056209 0.125844
v 0.252293 -0.131736 0.094356
v 0.270968 -0.128419 0.134348
v 0.261969 -0.089638 0.104011
v 0.307119 -0.194640 0.111344
v 0.303193 -0.165393 0.144334
v 0.270564 -0.170124 0.106675
v 0.307805 -0.123688 0.158425
v 0.359127 0.000000 0.255552
v 0.539780 0.000000 0.003410
vn -0.0438 -0.0000 -0.9990
vn 0.2858 0.4371 -0.8528
vn 0.3706 -0.0000 -0.9288
vn -0.1000 0.5922 -0.7995
vn 0.5592 0.6162 -0.5546
vn 0.2662 0.9635 -0.0267
vn -0.4141 -0.0000 -0.9102
vn -0.7972 0.3890 -0.4617
vn -0.3496 0.5648 -0.7475
vn -0.0770 0.6056 0.7920
vn 0.0888 -0.0000 0.9961
vn 0.1824 0.6050 0.7751
vn 0.6212 0.4925 -0.6095
vn 0.8183 -0.0000 -0.5748
vn 0.5144 0.5431 0.6637
vn 0.9995 -0.0000 0.0301
vn 0.6347 0.7694 -0.0712
vn 0.1373 0.9677 -0.2113
vn -0.9798 -0.0000 0.1999
vn -0.8239 0.5579 -0.1001
vn -0.9866 -0.0000 -0.1634
vn -0.6544 -0.0000 0.7562
vn -0.8188 0.5316 0.2168
vn -0.3023 0.9483 -0.0970
vn -0.5789 0.4982 0.6455
vn -0.8345 -0.0000 -0.5510
vn -0.0245 0.9576 -0.2872
vn -0.0086 0.5010 -0.8654
vn -0.1329 -0.0000 0.9911
vn -0.6786 0.4229 -0.6005
vn -0.0528 0.6510 -0.7572
vn 0.2168 0.8355 0.5049
vn -0.4625 0.7790 0.4234
vn 0.0502 0.6454 0.7622
vn -0.5365 0.7760 -0.3317
vn 0.5558 0.6717 0.4898
vn -0.0292 0.7976 0.6025
vn -0.7515 0.5224 0.4029
vn -0.6233 -0.0000 -0.7820
vn -0.6643 0.3752 0.6465
vn -0.5930 0.7103 -0.3793
vn 0.5524 0.5078 0.6611
vn 0.7771 -0.0000 -0.6294
vn 0.5215 0.7249 -0.4500
vn -0.6361 -0.0000 0.7716
vn -0.7500 0.1545 -0.6431
vn -0.5648 -0.0000 0.8252
vn -0.6970 0.6740 0.2447
vn 0.5084 0.4852 -0.7115
vn 0.7946 -0.0000 0.6071
vn 0.6885 -0.0000 -0.7253
vn 0.4261 0.8362 0.3454
vn -0.6089 -0.0000 -0.7933
vn 0.2960 -0.0000 -0.9552
vn 0.4591 0.4788 -0.7483
vn 0.7508 -0.0584 -0.6579
vn 0.4850 0.8147 -0.3179
vn -0.0081 0.8332 -0.5529
vn 0.3529 -0.5150 -0.7812
vn -0.1848 -0.2598 -0.9478
vn -0.1192 0.3544 -0.9275
vn 0.1061 0.9938 0.0329
vn 0.9814 -0.0994 -0.1641
vn 0.8620 0.4204 -0.2833
vn 0.9356 0.2014 0.2899
vn 0.3045 -0.8761 -0.3739
vn 0.7558 -0.5734 -0.3162
vn 0.4721 -0.8693 0.1463
vn -0.6103 -0.4421 -0.6573
vn -0.1798 -0.7748 -0.6061
vn -0.6438 -0.7387 -0.1995
vn -0.4987 0.6029 -0.6227
vn -0.6519 0.0945 -0.7524
vn -0.8700 0.4128 -0.2696
vn 0.6438 0.7387 0.1995
vn 0.8700 -0.4128 0.2696
vn -0.1061 -0.9938 -0.0329
vn -0.9356 -0.2014 -0.2899
vn -0.4721 0.8693 -0.1463
vn 0.6103 0.4421 0.6573
vn 0.1798 0.7748 0.6061
vn 0.1848 0.2598 0.9478
vn 0.4987 -0.6029 0.6227
vn 0.6519 -0.0945 0.7524
vn 0.1192 -0.3544 0.9275
vn -0.4850 -0.8147 0.3179
vn 0.0081 -0.8332 0.5529
vn -0.4591 -0.4789 0.7483
vn -0.9814 0.0994 0.1641
vn -0.8620 -0.4204 0.2833
vn -0.7508 0.0584 0.6579
vn -0.3044 0.8761 0.3739
vn -0.7558 0.5734 0.3162
vn -0.3529 0.5150 0.7812
vn -0.2960 -0.0000 0.9552
vn 0.2858 -0.4371 -0.8528
vn -0.0086 -0.5010 -0.8654
vn 0.5592 -0.6162 -0.5546
vn -0.1000 -0.5922 -0.7995
vn 0.2662 -0.9636 -0.0267
vn -0.7972 -0.3890 -0.4617
vn -0.3496 -0.5648 -0.7475
vn -0.0770 -0.6056 0.7920
vn 0.6212 -0.4925 -0.6095
vn 0.5144 -0.5431 0.6637
vn 0.6347 -0.7694 -0.0712
vn 0.1824 -0.6050 0.7751
vn 0.1372 -0.9677 -0.2113
vn -0.8239 -0.5579 -0.1001
vn -0.8188 -0.5316 0.2168
vn -0.5788 -0.4983 0.6455
vn -0.3023 -0.9483 -0.0970
vn -0.0245 -0.9576 -0.2872
vn -0.6786 -0.4229 -0.6005
vn -0.5365 -0.7760 -0.3317
vn 0.2168 -0.8355 0.5049
vn 0.0502 -0.6454 0.7622
vn -0.4626 -0.7789 0.4234
vn -0.0528 -0.6510 -0.7572
vn 0.5558 -0.6717 0.4898
vn -0.0292 -0.7976 0.6025
vn -0.7515 -0.5224 0.4029
vn -0.6643 -0.3752 0.6465
vn -0.5930 -0.7103 -0.3793
vn 0.5524 -0.5078 0.6611
vn 0.5215 -0.7249 -0.4500
vn -0.7500 -0.1545 -0.6431
vn 0.5084 -0.4852 -0.7115
vn 0.4261 -0.8362 0.3453
vn -0.6970 -0.6740 0.2447
vn 0.7508 0.0584 -0.6579
vn 0.4591 -0.4788 -0.7483
vn 0.4850 -0.8147 -0.3179
vn -0.0081 -0.8332 -0.5529
vn 0.3529 0.5150 -0.7812
vn -0.1848 0.2598 -0.9478
vn -0.1192 -0.3544 -0.9275
vn 0.1061 -0.9938 0.0329
vn 0.9814 0.0994 -0.1641
vn 0.9356 -0.2014 0.2899
vn 0.8620 -0.4204 -0.2833
vn 0.3045 0.8761 -0.3739
vn 0.4721 0.8693 0.1463
vn 0.7558 0.5734 -0.3162
vn -0.6103 0.4421 -0.6573
vn -0.6438 0.7387 -0.1995
vn -0.1798 0.7748 -0.6061
vn -0.4987 -0.6029 -0.6227
vn -0.8700 -0.4128 -0.2696
vn -0.6519 -0.0945 -0.7524
vn 0.6438 -0.7387 0.1995
vn 0.8700 0.4128 0.2696
vn -0.1061 0.9938 -0.0329
vn -0.9356 0.2014 -0.2899
vn -0.4721 -0.8693 -0.1463
vn 0.6103 -0.4421 0.6573
vn 0.1848 -0.2598 0.9478
vn 0.1798 -0.7748 0.6061
vn 0.4987 0.6029 0.6227
vn 0.1192 0.3544 0.9275
vn 0.6519 0.0945 0.7524
vn -0.4850 0.8147 0.3179
vn -0.4591 0.4789 0.7483
vn 0.0081 0.8332 0.5529
vn -0.9814 -0.0994 0.1641
vn -0.7508 -0.0584 0.6579
vn -0.8620 0.4204 0.2833
vn -0.3044 -0.8761 0.3739
vn -0.3529 -0.5150 0.7812
vn -0.7558 -0.5734 0.3162
vn 0.6276 -0.0000 0.7785
vn 0.7096 -0.0000 0.7046
vt 0.632813 0.687500
vt 0.632813 0.687500
vt 0.632813 0.687500
vt 0.598025 0.669211
vt 0.632813 0.687500
vt 0.598025 0.669211
vt 0.632813 0.687500
vt 0.598025 0.669211
vt 0.632813 0.687500
vt 0.632813 0.687500
vt 0.632813 0.687500
vt 0.632812 0.687500
vt 0.632812 0.687500
vt 0.632813 0.687500
vt 0.632813 0.687500
vt 0.632812 0.687500
vt 0.632813 0.687500
vt 0.632813 0.687500
vt 0.632813 0.687500
vt 0.632813 0.687500
vt 0.632813 0.687500
vt 0.632813 0.687500
vt 0.632813 0.687500
vt 0.632813 0.687500
vt 0.632813 0.687500
vt 0.632813 0.687500
vt 0.632813 0.687500
vt 0.632813 0.687500
vt 0.632813 0.687500
vt 0.632813 0.687500
vt 0.632813 0.687500
vt 0.598025 0.669211
vt 0.598025 0.669211
vt 0.632813 0.687500
vt 0.598025 0.669211
vt 0.632813 0.687500
vt 0.598025 0.669211
vt 0.632813 0.687500
vt 0.598025 0.669211
vt 0.632813 0.687500
vt 0.598025 0.669211
vt 0.598025 0.669211
vt 0.598025 0.669211
vt 0.598025 0.669211
vt 0.332031 0.535156
vt 0.332031 0.535156
vt 0.332031 0.535156
vt 0.332031 0.535156
vt 0.332031 0.535156
vt 0.332031 0.535156
vt 0.332031 0.535156
vt 0.332031 0.535156
vt 0.332031 0.535156
vt 0.332031 0.535156
vt 0.332031 0.535156
vt 0.332031 0.535156
vt 0.332031 0.535156
vt 0.332031 0.535156
vt 0.332031 0.535156
vt 0.050781 0.927597
vt 0.050781 0.927597
vt 0.050781 0.927597
vt 0.050781 0.927597
vt 0.050781 0.927597
vt 0.050781 0.927597
vt 0.050781 0.927597
vt 0.050781 0.927597
vt 0.050781 0.927597
vt 0.804688 0.904160
vt 0.050781 0.927597
vt 0.804688 0.904160
vt 0.050781 0.927597
vt 0.804688 0.904160
vt 0.050781 0.927597
vt 0.050781 0.927597
vt 0.050781 0.927597
vt 0.050781 0.927597
vt 0.050781 0.927597
vt 0.050781 0.927597
vt 0.050781 0.927597
vt 0.050781 0.927597
vt 0.050781 0.927597
vt 0.804688 0.904160
vt 0.050781 0.927597
vt 0.804688 0.904160
vt 0.050781 0.927597
vt 0.050781 0.927597
vt 0.050781 0.927597
vt 0.050781 0.927597
vt 0.050781 0.927597
vt 0.804688 0.904160
vt 0.050781 0.927597
vt 0.050781 0.927597
vt 0.050781 0.927597
vt 0.050781 0.927597
vt 0.804688 0.904160
vt 0.050781 0.927597
vt 0.050781 0.927597
vt 0.050781 0.927597
vt 0.050781 0.927597
vt 0.050781 0.927597
vt 0.050781 0.927597
vt 0.050781 0.927597
vt 0.050781 0.927597
vt 0.050781 0.927597
vt 0.050781 0.927597
vt 0.050781 0.927597
vt 0.632813 0.687500
vt 0.632813 0.687500
vt 0.598025 0.669211
vt 0.632813 0.687500
vt 0.598025 0.669211
vt 0.598025 0.669211
vt 0.632813 0.687500
vt 0.632813 0.687500
vt 0.632813 0.687500
vt 0.632812 0.687500
vt 0.632813 0.687500
vt 0.632813 0.687500
vt 0.632813 0.687500
vt 0.632813 0.687500
vt 0.632813 0.687500
vt 0.632813 0.687500
vt 0.632813 0.687500
vt 0.632813 0.687500
vt 0.632813 0.687500
vt 0.632813 0.687500
vt 0.598025 0.669211
vt 0.632813 0.687500
vt 0.598025 0.669211
vt 0.598025 0.669211
vt 0.632813 0.687500
vt 0.632813 0.687500
vt 0.598025 0.669211
vt 0.598025 0.669211
vt 0.632813 0.687500
vt 0.598025 0.669211
vt 0.598025 0.669211
vt 0.598025 0.669211
vt 0.598025 0.669211
vt 0.332031 0.535156
vt 0.332031 0.535156
vt 0.332031 0.535156
vt 0.332031 0.535156
vt 0.332031 0.535156
vt 0.332031 0.535156
vt 0.332031 0.535156
vt 0.332031 0.535156
vt 0.050781 0.927597
vt 0.050781 0.927597
vt 0.050781 0.927597
vt 0.050781 0.927597
vt 0.050781 0.927597
vt 0.050781 0.927597
vt 0.050781 0.927597
vt 0.050781 0.927597
vt 0.050781 0.927597
vt 0.804688 0.904160
vt 0.050781 0.927597
vt 0.804688 0.904160
vt 0.804688 0.904160
vt 0.050781 0.927597
vt 0.050781 0.927597
vt 0.050781 0.927597
vt 0.050781 0.927597
vt 0.050781 0.927597
vt 0.050781 0.927597
vt 0.050781 0.927597
vt 0.050781 0.927597
vt 0.050781 0.927597
vt 0.050781 0.927597
vt 0.804688 0.904160
vt 0.050781 0.927597
vt 0.804688 0.904160
vt 0.050781 0.927597
vt 0.050781 0.927597
vt 0.050781 0.927597
vt 0.050781 0.927597
vt 0.050781 0.927597
vt 0.804688 0.904160
vt 0.050781 0.927597
vt 0.050781 0.927597
vt 0.050781 0.927597
vt 0.050781 0.927597
vt 0.050781 0.927597
vt 0.804688 0.904160
vt 0.050781 0.927597
vt 0.050781 0.927597
vt 0.050781 0.927597
vt 0.050781 0.927597
vt 0.050781 0.927597
vt 0.050781 0.927597
vt 0.050781 0.927597
vt 0.050781 0.927597
vt 0.050781 0.927597
vt 0.050781 0.927597
vt 0.632813 0.687500
vt 0.332031 0.535156
s 1
usemtl Material.001
f 1/1/1 2/2/2 3/3/3
f 4/4/4 5/6/5 6/8/6
f 7/9/7 8/10/8 9/11/9
f 10/12/10 11/13/11 12/14/12
f 3/3/3 13/15/13 14/16/14
f 15/17/15 16/18/16 17/19/17
f 12/14/12 17/19/17 18/20/18
f 11/13/11 15/17/15 12/14/12
f 19/21/19 20/22/20 21/23/21
f 22/24/22 23/25/23 19/21/19
f 24/26/24 8/10/8 20/22/20
f 24/26/24 23/25/23 25/27/25
f 21/23/21 8/10/8 26/28/26
f 18/20/18 13/15/13 2/2/2
f 13/15/13 16/18/16 14/16/14
f 27/29/27 2/2/2 28/30/28
f 9/11/9 27/29/27 28/30/28
f 25/27/25 29/31/29 10/12/10
f 4/4/4 30/32/30 31/33/31
f 7/9/7 28/30/28 1/1/1
f 32/34/32 10/12/10 12/14/12
f 33/36/33 24/26/24 25/27/25
f 32/34/32 18/20/18 6/7/6
f 6/7/6 27/29/27 4/5/4
f 33/36/33 10/12/10 34/38/34
f 35/40/35 27/29/27 24/26/24
f 31/33/31 36/42/36 5/6/5
f 30/32/30 37/43/37 31/33/31
f 35/41/35 38/44/38 30/32/30
f 34/39/34 38/44/38 33/37/33
f 6/8/6 36/42/36 32/35/32
f 34/39/34 36/42/36 37/43/37
f 39/45/39 40/46/40 41/47/41
f 42/48/42 43/49/43 44/50/44
f 40/46/40 44/50/44 41/47/41
f 45/51/45 42/48/42 40/46/40
f 39/45/39 44/50/44 43/49/43
f 46/52/46 47/53/47 48/54/48
f 49/55/49 50/56/50 51/57/51
f 48/54/48 49/55/49 46/52/46
f 47/53/47 52/58/52 48/54/48
f 53/59/53 49/55/49 51/57/51
f 54/60/54 55/61/55 56/62/56
f 57/63/57 55/61/55 58/64/58
f 54/60/54 56/62/56 59/65/59
f 54/60/54 59/65/59 60/66/60
f 54/60/54 60/66/60 61/67/61
f 57/63/57 58/64/58 62/68/62
f 63/69/63 64/71/64 65/73/65
f 66/74/66 67/75/67 68/76/68
f 69/77/69 70/78/70 71/79/71
f 72/80/72 73/81/73 74/82/74
f 57/63/57 62/68/62 75/84/75
f 63/69/63 65/73/65 76/85/76
f 66/74/66 68/76/68 77/87/77
f 69/77/69 71/79/71 78/88/78
f 72/80/72 74/82/74 79/89/79
f 80/90/80 81/92/81 82/93/82
f 83/94/83 84/95/84 85/97/85
f 86/98/86 87/99/87 88/100/88
f 89/101/89 90/102/90 91/103/91
f 92/104/92 93/105/93 94/106/94
f 94/106/94 91/103/91 95/107/95
f 94/106/94 93/105/93 91/103/91
f 93/105/93 89/101/89 91/103/91
f 91/103/91 88/100/88 95/107/95
f 91/103/91 90/102/90 88/100/88
f 90/102/90 86/98/86 88/100/88
f 88/100/88 85/97/85 95/107/95
f 88/100/88 87/99/87 85/97/85
f 87/99/87 83/94/83 85/97/85
f 85/97/85 82/93/82 95/107/95
f 85/97/85 84/95/84 82/93/82
f 84/95/84 80/90/80 82/93/82
f 82/93/82 94/106/94 95/107/95
f 82/93/82 81/92/81 94/106/94
f 81/92/81 92/104/92 94/106/94
f 79/89/79 93/105/93 92/104/92
f 79/89/79 74/82/74 93/105/93
f 74/82/74 89/101/89 93/105/93
f 78/88/78 90/102/90 89/101/89
f 78/88/78 71/79/71 90/102/90
f 71/79/71 86/98/86 90/102/90
f 77/87/77 87/99/87 86/98/86
f 77/87/77 68/76/68 87/99/87
f 68/76/68 83/94/83 87/99/87
f 76/86/76 84/95/84 83/94/83
f 76/85/76 65/73/65 84/96/84
f 65/73/65 80/91/80 84/96/84
f 75/84/75 81/92/81 80/90/80
f 75/84/75 62/68/62 81/92/81
f 62/68/62 92/104/92 81/92/81
f 74/82/74 78/88/78 89/101/89
f 74/82/74 73/81/73 78/88/78
f 73/81/73 69/77/69 78/88/78
f 71/79/71 77/87/77 86/98/86
f 71/79/71 70/78/70 77/87/77
f 70/78/70 66/74/66 77/87/77
f 68/76/68 76/86/76 83/94/83
f 68/76/68 67/75/67 76/86/76
f 67/75/67 63/70/63 76/86/76
f 65/73/65 75/83/75 80/91/80
f 65/73/65 64/71/64 75/83/75
f 64/72/64 57/63/57 75/84/75
f 62/68/62 79/89/79 92/104/92
f 62/68/62 58/64/58 79/89/79
f 58/64/58 72/80/72 79/89/79
f 61/67/61 73/81/73 72/80/72
f 61/67/61 60/66/60 73/81/73
f 60/66/60 69/77/69 73/81/73
f 60/66/60 70/78/70 69/77/69
f 60/66/60 59/65/59 70/78/70
f 59/65/59 66/74/66 70/78/70
f 59/65/59 67/75/67 66/74/66
f 59/65/59 56/62/56 67/75/67
f 56/62/56 63/70/63 67/75/67
f 58/64/58 61/67/61 72/80/72
f 58/64/58 55/61/55 61/67/61
f 55/61/55 54/60/54 61/67/61
f 56/62/56 64/72/64 63/70/63
f 56/62/56 55/61/55 64/72/64
f 55/61/55 57/63/57 64/72/64
f 1/1/1 96/108/96 97/109/97
f 98/110/98 99/112/99 100/113/100
f 101/115/101 7/9/7 102/116/102
f 103/117/103 11/13/11 29/31/29
f 3/3/3 104/118/104 96/108/96
f 16/18/16 105/119/105 106/120/106
f 106/120/106 107/121/107 108/122/108
f 105/119/105 11/13/11 107/121/107
f 109/123/109 19/21/19 21/23/21
f 22/24/22 110/124/110 111/125/111
f 112/126/112 101/115/101 102/116/102
f 110/124/110 112/126/112 111/125/111
f 101/115/101 21/23/21 26/28/26
f 104/118/104 108/122/108 96/108/96
f 104/118/104 16/18/16 106/120/106
f 96/108/96 113/127/113 97/109/97
f 102/116/102 113/127/113 112/126/112
f 111/125/111 29/31/29 22/24/22
f 99/112/99 114/128/114 115/130/115
f 7/9/7 97/109/97 102/116/102
f 116/132/116 103/117/103 117/133/117
f 118/136/118 112/126/112 115/129/115
f 108/122/108 116/132/116 100/114/100
f 113/127/113 100/114/100 99/111/99
f 103/117/103 118/136/118 117/133/117
f 115/129/115 113/127/113 99/111/99
f 119/137/119 120/138/120 121/139/121
f 114/128/114 121/139/121 122/140/122
f 115/130/115 122/140/122 118/135/118
f 122/140/122 117/134/117 118/135/118
f 120/138/120 100/113/100 116/131/116
f 117/134/117 120/138/120 116/131/116
f 123/141/123 39/45/39 124/142/124
f 43/49/43 125/143/125 126/144/126
f 126/144/126 123/141/123 124/142/124
f 125/143/125 45/51/45 123/141/123
f 39/45/39 126/144/126 124/142/124
f 127/145/127 47/53/47 53/59/53
f 128/146/128 50/56/50 129/147/129
f 128/146/128 130/148/130 127/145/127
f 129/147/129 47/53/47 130/148/130
f 53/59/53 128/146/128 127/145/127
f 131/149/54 132/150/131 133/151/132
f 134/152/133 135/153/134 133/151/132
f 131/149/54 136/154/135 132/150/131
f 131/149/54 137/155/136 136/154/135
f 131/149/54 138/156/137 137/155/136
f 134/152/133 139/157/138 135/153/134
f 140/158/139 141/160/140 142/161/141
f 143/163/142 144/164/143 145/165/144
f 146/166/145 147/167/146 148/168/147
f 149/169/148 150/170/149 151/171/150
f 134/152/133 152/173/151 139/157/138
f 140/158/139 153/174/152 141/160/140
f 143/163/142 154/176/153 144/164/143
f 146/166/145 155/177/154 147/167/146
f 149/169/148 156/178/155 150/170/149
f 157/179/156 158/181/157 159/182/158
f 160/183/159 161/184/160 162/185/161
f 163/187/162 164/188/163 165/189/164
f 166/190/165 167/191/166 168/192/167
f 169/193/168 170/194/169 171/195/170
f 170/194/169 172/196/95 167/191/166
f 170/194/169 167/191/166 171/195/170
f 171/195/170 167/191/166 166/190/165
f 167/191/166 172/196/95 164/188/163
f 167/191/166 164/188/163 168/192/167
f 168/192/167 164/188/163 163/187/162
f 164/188/163 172/196/95 161/184/160
f 164/188/163 161/184/160 165/189/164
f 165/189/164 161/184/160 160/183/159
f 161/184/160 172/196/95 158/181/157
f 161/184/160 158/181/157 162/185/161
f 162/185/161 158/181/157 157/179/156
f 158/181/157 172/196/95 170/194/169
f 158/181/157 170/194/169 159/182/158
f 159/182/158 170/194/169 169/193/168
f 156/178/155 169/193/168 171/195/170
f 156/178/155 171/195/170 150/170/149
f 150/170/149 171/195/170 166/190/165
f 155/177/154 166/190/165 168/192/167
f 155/177/154 168/192/167 147/167/146
f 147/167/146 168/192/167 163/187/162
f 154/176/153 163/187/162 165/189/164
f 154/176/153 165/189/164 144/164/143
f 144/164/143 165/189/164 160/183/159
f 153/175/152 160/183/159 162/185/161
f 153/174/152 162/186/161 141/160/140
f 141/160/140 162/186/161 157/180/156
f 152/173/151 157/179/156 159/182/158
f 152/173/151 159/182/158 139/157/138
f 139/157/138 159/182/158 169/193/168
f 150/170/149 166/190/165 155/177/154
f 150/170/149 155/177/154 151/171/150
f 151/171/150 155/177/154 146/166/145
f 147/167/146 163/187/162 154/176/153
f 147/167/146 154/176/153 148/168/147
f 148/168/147 154/176/153 143/163/142
f 144/164/143 160/183/159 153/175/152
f 144/164/143 153/175/152 145/165/144
f 145/165/144 153/175/152 140/159/139
f 141/160/140 157/180/156 152/172/151
f 141/160/140 152/172/151 142/161/141
f 142/162/141 152/173/151 134/152/133
f 139/157/138 169/193/168 156/178/155
f 139/157/138 156/178/155 135/153/134
f 135/153/134 156/178/155 149/169/148
f 138/156/137 149/169/148 151/171/150
f 138/156/137 151/171/150 137/155/136
f 137/155/136 151/171/150 146/166/145
f 137/155/136 146/166/145 148/168/147
f 137/155/136 148/168/147 136/154/135
f 136/154/135 148/168/147 143/163/142
f 136/154/135 143/163/142 145/165/144
f 136/154/135 145/165/144 132/150/131
f 132/150/131 145/165/144 140/159/139
f 135/153/134 149/169/148 138/156/137
f 135/153/134 138/156/137 133/151/132
f 133/151/132 138/156/137 131/149/54
f 132/150/131 140/159/139 142/162/141
f 132/150/131 142/162/141 133/151/132
f 133/151/132 142/162/141 134/152/133
f 10/12/10 29/31/29 11/13/11
f 15/17/15 173/197/171 16/18/16
f 12/14/12 15/17/15 17/19/17
f 11/13/11 173/197/171 15/17/15
f 25/27/25 22/24/22 29/31/29
f 42/48/42 174/198/172 43/49/43
f 49/55/49 52/58/52 50/56/50
f 103/117/103 107/121/107 11/13/11
f 16/18/16 173/197/171 105/119/105
f 106/120/106 105/119/105 107/121/107
f 105/119/105 173/197/171 11/13/11
f 111/125/111 103/117/103 29/31/29
f 116/132/116 107/121/107 103/117/103
f 108/122/108 107/121/107 116/132/116
f 103/117/103 111/125/111 118/136/118
f 119/137/119 98/110/98 120/138/120
f 114/128/114 119/137/119 121/139/121
f 122/140/122 121/139/121 117/134/117
f 120/138/120 98/110/98 100/113/100
f 117/134/117 121/139/121 120/138/120
f 43/49/43 174/198/172 125/143/125
f 128/146/128 51/57/51 50/56/50
f 1/1/1 28/30/28 2/2/2
f 4/4/4 31/33/31 5/6/5
f 7/9/7 26/28/26 8/10/8
f 3/3/3 2/2/2 13/15/13
f 19/21/19 23/25/23 20/22/20
f 22/24/22 25/27/25 23/25/23
f 24/26/24 9/11/9 8/10/8
f 24/26/24 20/22/20 23/25/23
f 21/23/21 20/22/20 8/10/8
f 18/20/18 17/19/17 13/15/13
f 13/15/13 17/19/17 16/18/16
f 27/29/27 18/20/18 2/2/2
f 9/11/9 24/26/24 27/29/27
f 4/4/4 35/41/35 30/32/30
f 7/9/7 9/11/9 28/30/28
f 32/34/32 34/38/34 10/12/10
f 33/36/33 35/40/35 24/26/24
f 32/34/32 12/14/12 18/20/18
f 6/7/6 18/20/18 27/29/27
f 33/36/33 25/27/25 10/12/10
f 35/40/35 4/5/4 27/29/27
f 31/33/31 37/43/37 36/42/36
f 30/32/30 38/44/38 37/43/37
f 35/41/35 33/37/33 38/44/38
f 34/39/34 37/43/37 38/44/38
f 6/8/6 5/6/5 36/42/36
f 34/39/34 32/35/32 36/42/36
f 39/45/39 45/51/45 40/46/40
f 40/46/40 42/48/42 44/50/44
f 45/51/45 174/198/172 42/48/42
f 39/45/39 41/47/41 44/50/44
f 46/52/46 53/59/53 47/53/47
f 48/54/48 52/58/52 49/55/49
f 47/53/47 50/56/50 52/58/52
f 53/59/53 46/52/46 49/55/49
f 1/1/1 3/3/3 96/108/96
f 98/110/98 119/137/119 99/112/99
f 101/115/101 26/28/26 7/9/7
f 3/3/3 14/16/14 104/118/104
f 109/123/109 110/124/110 19/21/19
f 22/24/22 19/21/19 110/124/110
f 112/126/112 109/123/109 101/115/101
f 110/124/110 109/123/109 112/126/112
f 101/115/101 109/123/109 21/23/21
f 104/118/104 106/120/106 108/122/108
f 104/118/104 14/16/14 16/18/16
f 96/108/96 108/122/108 113/127/113
f 102/116/102 97/109/97 113/127/113
f 99/112/99 119/137/119 114/128/114
f 7/9/7 1/1/1 97/109/97
f 118/136/118 111/125/111 112/126/112
f 113/127/113 108/122/108 100/114/100
f 115/129/115 112/126/112 113/127/113
f 115/130/115 114/128/114 122/140/122
f 123/141/123 45/51/45 39/45/39
f 126/144/126 125/143/125 123/141/123
f 125/143/125 174/198/172 45/51/45
f 39/45/39 43/49/43 126/144/126
f 127/145/127 130/148/130 47/53/47
f 128/146/128 129/147/129 130/148/130
f 129/147/129 50/56/50 47/53/47
f 53/59/53 51/57/51 128/146/128
